<?xml version="1.0" encoding="UTF-8" standalone="no"?>
<!-- Generator: Adobe Illustrator 24.3.0, SVG Export Plug-In . SVG Version: 6.00 Build 0)  -->

<svg
   version="1.1"
   id="Layer_1"
   x="0px"
   y="0px"
   viewBox="0 0 371 500"
   xml:space="preserve"
   sodipodi:docname="login2.svg"
   style="enable-background:new 0 0 371 500"
   inkscape:version="1.3.2 (091e20e, 2023-11-25)"
   xmlns:inkscape="http://www.inkscape.org/namespaces/inkscape"
   xmlns:sodipodi="http://sodipodi.sourceforge.net/DTD/sodipodi-0.dtd"
   xmlns="http://www.w3.org/2000/svg"
   xmlns:svg="http://www.w3.org/2000/svg"><sodipodi:namedview
   id="namedview97"
   pagecolor="#ffffff"
   bordercolor="#000000"
   borderopacity="0.25"
   inkscape:showpageshadow="2"
   inkscape:pageopacity="0.0"
   inkscape:pagecheckerboard="0"
   inkscape:deskcolor="#d1d1d1"
   inkscape:zoom="2.1929995"
   inkscape:cx="237.80215"
   inkscape:cy="210.89836"
   inkscape:window-width="1280"
   inkscape:window-height="674"
   inkscape:window-x="0"
   inkscape:window-y="25"
   inkscape:window-maximized="1"
   inkscape:current-layer="Layer_1" /><defs
   id="defs97" />
<style
   type="text/css"
   id="style1">
	.st0{opacity:0.8;}
	.st1{fill:#284956;}
	.st2{fill:#418B78;}
	.st3{fill:#FFFFFF;}
	.st4{fill:#FFBE9D;}
	.st5{fill:#FC6666;}
	.st6{fill:#183B56;}
	.st7{fill:#263238;}
	.st8{opacity:0.4;enable-background:new    ;}
	.st9{opacity:0.6;}
	.st10{opacity:0.6;fill:#FFFFFF;enable-background:new    ;}
	.st11{fill:#455A64;}
	.st12{fill:#EB996E;}
</style>





<g
   id="Background_Complete"
   transform="matrix(0.83474576,0,0,0.83474576,-29.711864,49.586678)">
	<g
   id="g8">
		<g
   id="g2">
			<rect
   y="382.39801"
   style="fill:#ebebeb;fill-opacity:1.0"
   width="500"
   height="0.25"
   id="rect1"
   x="0" />
			<path
   style="fill:#ebebeb;fill-opacity:1.0"
   d="M 237.014,337.8 H 43.915 c -3.147,0 -5.708,-2.561 -5.708,-5.708 V 60.66 c 0,-3.147 2.561,-5.708 5.708,-5.708 h 193.099 c 3.146,0 5.707,2.561 5.707,5.708 v 271.432 c 0,3.147 -2.561,5.708 -5.707,5.708 z M 43.915,55.203 c -3.01,0 -5.458,2.448 -5.458,5.458 v 271.432 c 0,3.01 2.448,5.458 5.458,5.458 h 193.099 c 3.009,0 5.457,-2.448 5.457,-5.458 V 60.66 c 0,-3.009 -2.448,-5.458 -5.457,-5.458 H 43.915 Z"
   id="path1" />
			<path
   style="fill:#ebebeb;fill-opacity:1.0"
   d="M 453.31,337.8 H 260.212 c -3.147,0 -5.707,-2.561 -5.707,-5.708 V 60.66 c 0,-3.147 2.561,-5.708 5.707,-5.708 H 453.31 c 3.148,0 5.708,2.561 5.708,5.708 v 271.432 c 0.001,3.147 -2.56,5.708 -5.708,5.708 z M 260.212,55.203 c -3.009,0 -5.457,2.448 -5.457,5.458 v 271.432 c 0,3.01 2.448,5.458 5.457,5.458 H 453.31 c 3.01,0 5.458,-2.448 5.458,-5.458 V 60.66 c 0,-3.009 -2.448,-5.458 -5.458,-5.458 H 260.212 Z"
   id="path2" />
		</g>
		<g
   id="g7">
			<rect
   x="51.278999"
   y="391.922"
   style="fill:#ebebeb;fill-opacity:1.0"
   width="25.997"
   height="0.25"
   id="rect2" />
			<rect
   x="145.153"
   y="389.20801"
   style="fill:#ebebeb;fill-opacity:1.0"
   width="45.027"
   height="0.25"
   id="rect3" />
			<rect
   x="78.277"
   y="401.20801"
   style="fill:#ebebeb;fill-opacity:1.0"
   width="60.792"
   height="0.25"
   id="rect4" />
			<rect
   x="429.487"
   y="399.52802"
   style="fill:#ebebeb;fill-opacity:1.0"
   width="19.235001"
   height="0.25"
   id="rect5" />
			<rect
   x="365.29099"
   y="399.52802"
   style="fill:#ebebeb;fill-opacity:1.0"
   width="55.292"
   height="0.25"
   id="rect6" />
			<rect
   x="257.047"
   y="395.306"
   style="fill:#ebebeb;fill-opacity:1.0"
   width="74.467003"
   height="0.25"
   id="rect7" />
		</g>
	</g>
	<g
   id="g47">
		<g
   id="g20">
			<g
   id="g10">
				<polygon
   style="fill:#e6e6e6;fill-opacity:1.0"
   points="115.06,295.667 111.746,257.444 166.327,257.444 169.64,295.667 "
   id="polygon8" />
				<polygon
   style="fill:#f0f0f0;fill-opacity:1.0"
   points="117.887,295.667 114.574,257.444 169.154,257.444 172.467,295.667 "
   id="polygon9" />
				<polygon
   style="fill:#ffffff;fill-opacity:1.0"
   points="123.528,265.652 161.692,265.652 163.512,287.459 125.348,287.459 "
   id="polygon10" />
			</g>
			<g
   id="g19">
				<rect
   x="196.815"
   y="295.66699"
   style="fill:#e6e6e6;fill-opacity:1.0"
   width="7.7909999"
   height="86.730003"
   id="rect10" />
				<rect
   x="201.65401"
   y="295.66699"
   style="fill:#f0f0f0;fill-opacity:1.0"
   width="5.4109998"
   height="86.730003"
   id="rect11" />
				
					<rect
   x="131.655"
   y="295.66699"
   transform="rotate(180,169.36005,300.453)"
   style="fill:#f0f0f0;fill-opacity:1.0"
   width="75.408997"
   height="9.573"
   id="rect12" />
				<rect
   x="126.531"
   y="305.23901"
   style="fill:#e6e6e6;fill-opacity:1.0"
   width="7.7909999"
   height="77.156998"
   id="rect13" />
				<rect
   x="131.37"
   y="305.23901"
   style="fill:#f0f0f0;fill-opacity:1.0"
   width="5.4109998"
   height="77.156998"
   id="rect14" />
				<rect
   x="71.072998"
   y="305.23901"
   style="fill:#e6e6e6;fill-opacity:1.0"
   width="7.7909999"
   height="77.156998"
   id="rect15" />
				<rect
   x="75.912003"
   y="305.23901"
   style="fill:#f0f0f0;fill-opacity:1.0"
   width="5.4109998"
   height="77.156998"
   id="rect16" />
				<rect
   x="147.51199"
   y="305.23901"
   style="fill:#e6e6e6;fill-opacity:1.0"
   width="7.7909999"
   height="77.156998"
   id="rect17" />
				<rect
   x="152.351"
   y="305.23901"
   style="fill:#f0f0f0;fill-opacity:1.0"
   width="5.4109998"
   height="77.156998"
   id="rect18" />
				<rect
   x="71.072998"
   y="295.66699"
   style="fill:#e6e6e6;fill-opacity:1.0"
   width="60.582001"
   height="9.573"
   id="rect19" />
			</g>
		</g>
		<g
   id="g31">
			<rect
   x="69.004997"
   y="82.417"
   style="fill:#e6e6e6;fill-opacity:1.0"
   width="226.229"
   height="129.77901"
   id="rect20" />
			<rect
   x="71.831001"
   y="82.417"
   style="fill:#f0f0f0;fill-opacity:1.0"
   width="229.45"
   height="129.77901"
   id="rect21" />
			<rect
   x="69.004997"
   y="212.19701"
   style="fill:#e6e6e6;fill-opacity:1.0"
   width="226.229"
   height="11.237"
   id="rect22" />
			<rect
   x="81.904999"
   y="212.19701"
   style="fill:#f0f0f0;fill-opacity:1.0"
   width="229.45"
   height="11.237"
   id="rect23" />
			
				<rect
   x="130.132"
   y="41.047001"
   transform="rotate(90,186.55595,147.30685)"
   style="fill:#fafafa;fill-opacity:1.0"
   width="112.849"
   height="212.519"
   id="rect24" />
			<polygon
   style="fill:#ffffff;fill-opacity:1.0"
   points="145.595,90.883 169.05,90.883 119.363,203.731 95.908,203.731 "
   id="polygon24" />
			<path
   style="fill:#f0f0f0;fill-opacity:1.0"
   d="m 84.216,195.306 c -0.334,0 -0.605,-0.271 -0.605,-0.605 v -98.31 c 0,-0.334 0.271,-0.605 0.605,-0.605 0.334,0 0.605,0.271 0.605,0.605 v 98.31 c 0,0.334 -0.271,0.605 -0.605,0.605 z"
   id="path24" />
			<polygon
   style="fill:#ffffff;fill-opacity:1.0"
   points="174.089,90.883 183.233,90.883 133.546,203.731 124.402,203.731 "
   id="polygon25" />
			
				<rect
   x="235.854"
   y="146.769"
   transform="rotate(90,292.2778,147.3069)"
   style="fill:#e6e6e6;fill-opacity:1.0"
   width="112.849"
   height="1.075"
   id="rect25" />
			<polygon
   style="opacity:0.6;fill:#ebebeb;fill-opacity:1.0"
   points="77.054,103.647 76.275,94.173 302.504,94.173 303.283,103.647 "
   id="polygon26" />
			<polygon
   style="opacity:0.6;fill:#ebebeb;fill-opacity:1.0"
   points="77.054,119.184 76.275,109.711 302.504,109.711 303.283,119.184 "
   id="polygon27" />
			<polygon
   style="opacity:0.6;fill:#ebebeb;fill-opacity:1.0"
   points="77.054,134.721 76.275,125.248 302.504,125.248 303.283,134.721 "
   id="polygon28" />
			<polygon
   style="opacity:0.6;fill:#ebebeb;fill-opacity:1.0"
   points="77.054,150.259 76.275,140.785 302.504,140.785 303.283,150.259 "
   id="polygon29" />
			<polygon
   style="opacity:0.6;fill:#ebebeb;fill-opacity:1.0"
   points="77.054,165.796 76.275,156.322 302.504,156.322 303.283,165.796 "
   id="polygon30" />
			<polygon
   style="opacity:0.6;fill:#ebebeb;fill-opacity:1.0"
   points="77.054,181.333 76.275,171.86 302.504,171.86 303.283,181.333 "
   id="polygon31" />
		</g>
		<g
   id="g38">
			<g
   id="g34">
				
					<rect
   x="365.422"
   y="82.417"
   transform="rotate(180,395.88055,112.87565)"
   style="fill:#ebebeb;fill-opacity:1.0"
   width="60.917"
   height="60.917"
   id="rect31" />
				<rect
   x="362.72101"
   y="82.417"
   style="fill:#e0e0e0;fill-opacity:1.0"
   width="2.701"
   height="60.917"
   id="rect32" />
				
					<rect
   x="373.67499"
   y="90.669998"
   transform="rotate(180,395.8805,112.87565)"
   style="fill:#ffffff;fill-opacity:1.0"
   width="44.411999"
   height="44.411999"
   id="rect33" />
				
					<rect
   x="385.371"
   y="102.366"
   transform="matrix(-0.7071,0.7071,-0.7071,-0.7071,755.6254,-87.239)"
   style="fill:#f5f5f5;fill-opacity:1.0"
   width="21.02"
   height="21.02"
   id="rect34" />
			</g>
			<g
   id="g37">
				
					<rect
   x="344.431"
   y="162.51601"
   transform="rotate(180,374.88975,192.97475)"
   style="fill:#ebebeb;fill-opacity:1.0"
   width="60.917"
   height="60.917"
   id="rect35" />
				<rect
   x="341.73001"
   y="162.51601"
   style="fill:#e0e0e0;fill-opacity:1.0"
   width="2.701"
   height="60.917"
   id="rect36" />
				
					<rect
   x="352.68399"
   y="170.769"
   transform="rotate(180,374.88975,192.97475)"
   style="fill:#ffffff;fill-opacity:1.0"
   width="44.411999"
   height="44.411999"
   id="rect37" />
				<path
   style="fill:#f5f5f5;fill-opacity:1.0"
   d="m 371.737,202.443 h 6.306 c 3.488,0 6.315,-2.827 6.315,-6.315 v -6.306 c 0,-3.488 -2.827,-6.315 -6.315,-6.315 h -6.306 c -3.487,0 -6.315,2.827 -6.315,6.315 v 6.306 c 0,3.487 2.827,6.315 6.315,6.315 z"
   id="path37" />
			</g>
		</g>
		<g
   id="g46">
			<g
   id="g45">
				<rect
   x="292.534"
   y="253.035"
   style="fill:#f0f0f0;fill-opacity:1.0"
   width="15.191"
   height="125.275"
   id="rect38" />
				<rect
   x="294.63901"
   y="378.31"
   style="fill:#f0f0f0;fill-opacity:1.0"
   width="145.85899"
   height="4.0890002"
   id="rect39" />
				
					<rect
   x="307.72501"
   y="253.035"
   transform="rotate(180,375.16425,315.6722)"
   style="fill:#fafafa;fill-opacity:1.0"
   width="134.87801"
   height="125.275"
   id="rect40" />
				<path
   style="fill:#f0f0f0;fill-opacity:1.0"
   d="m 416.196,326.239 h -82.064 c -8.056,0 -14.609,-6.554 -14.609,-14.61 0,-8.056 6.554,-14.61 14.609,-14.61 h 82.064 c 8.056,0 14.609,6.554 14.609,14.61 0,8.056 -6.553,14.61 -14.609,14.61 z M 334.132,298 c -7.515,0 -13.629,6.114 -13.629,13.628 0,7.515 6.114,13.628 13.629,13.628 h 82.064 c 7.515,0 13.629,-6.114 13.629,-13.628 0,-7.515 -6.114,-13.628 -13.629,-13.628 z"
   id="path40" />
				<path
   style="fill:#f0f0f0;fill-opacity:1.0"
   d="m 416.196,362.585 h -82.064 c -8.056,0 -14.609,-6.554 -14.609,-14.61 0,-8.056 6.554,-14.61 14.609,-14.61 h 82.064 c 8.056,0 14.609,6.554 14.609,14.61 0,8.056 -6.553,14.61 -14.609,14.61 z m -82.064,-28.238 c -7.515,0 -13.629,6.114 -13.629,13.628 0,7.515 6.114,13.628 13.629,13.628 h 82.064 c 7.515,0 13.629,-6.114 13.629,-13.628 0,-7.515 -6.114,-13.628 -13.629,-13.628 z"
   id="path41" />
				<path
   style="fill:#ebebeb;fill-opacity:1.0"
   d="m 387.547,308.478 h -24.766 c -1.676,0 -3.048,-1.372 -3.048,-3.048 v 0 c 0,-1.677 1.372,-3.048 3.048,-3.048 h 24.766 c 1.676,0 3.048,1.372 3.048,3.048 v 0 c 0,1.676 -1.371,3.048 -3.048,3.048 z"
   id="path42" />
				<path
   style="fill:#f0f0f0;fill-opacity:1.0"
   d="m 416.196,289.893 h -82.064 c -8.056,0 -14.609,-6.554 -14.609,-14.61 0,-8.056 6.554,-14.61 14.609,-14.61 h 82.064 c 8.056,0 14.609,6.554 14.609,14.61 10e-4,8.055 -6.553,14.61 -14.609,14.61 z m -82.064,-28.239 c -7.515,0 -13.629,6.114 -13.629,13.628 0,7.515 6.114,13.628 13.629,13.628 h 82.064 c 7.515,0 13.629,-6.114 13.629,-13.628 0,-7.515 -6.114,-13.628 -13.629,-13.628 z"
   id="path43" />
				<path
   style="fill:#ebebeb;fill-opacity:1.0"
   d="m 387.547,272.132 h -24.766 c -1.676,0 -3.048,-1.372 -3.048,-3.048 v 0 c 0,-1.677 1.372,-3.048 3.048,-3.048 h 24.766 c 1.676,0 3.048,1.372 3.048,3.048 v 0 c 0,1.676 -1.371,3.048 -3.048,3.048 z"
   id="path44" />
				<path
   style="fill:#ebebeb;fill-opacity:1.0"
   d="m 387.547,344.824 h -24.766 c -1.676,0 -3.048,-1.372 -3.048,-3.048 v 0 c 0,-1.676 1.372,-3.048 3.048,-3.048 h 24.766 c 1.676,0 3.048,1.372 3.048,3.048 v 0 c 0,1.677 -1.371,3.048 -3.048,3.048 z"
   id="path45" />
			</g>
			<rect
   x="307.72501"
   y="246.66701"
   style="fill:#f0f0f0;fill-opacity:1.0"
   width="137.65199"
   height="6.368"
   id="rect45" />
			
				<rect
   x="289.55801"
   y="246.66701"
   transform="rotate(180,298.6414,249.85065)"
   style="fill:#e6e6e6;fill-opacity:1.0"
   width="18.167999"
   height="6.368"
   id="rect46" />
		</g>
	</g>
</g><g
   id="Shadow_1_"
   transform="matrix(0.83474576,0,0,0.83474576,-29.711864,49.586678)">
	<ellipse
   id="_x3C_Path_x3E__212_"
   style="fill:#f5f5f5;fill-opacity:1.0"
   cx="250"
   cy="416.23801"
   rx="193.88901"
   ry="11.323" />
</g><g
   id="Terms_and_Conditions"
   transform="matrix(0.83474576,0,0,0.83474576,-29.711864,49.586678)">
	<g
   id="g63">
		<g
   id="g50">
			<path
   style="fill:#407bff;fill-opacity:1.0"
   d="M 413.642,148.229 H 262.925 c 0,0 -27.155,24.965 -27.155,85.786 0,52.269 20.585,123.133 12.859,152.15 -5.828,21.888 -34.102,25.644 -47.644,26.17 H 344.44 c 0,0 47.179,2.847 54.905,-26.17 7.727,-29.017 -12.859,-99.881 -12.859,-152.15 0.001,-60.821 27.156,-85.786 27.156,-85.786 z"
   id="path49" />
			<path
   style="opacity:0.7;fill:#7cc8e5;fill-opacity:1"
   d="M 413.642,148.229 H 262.925 c 0,0 -27.155,24.965 -27.155,85.786 0,52.269 20.585,123.133 12.859,152.15 -5.828,21.888 -34.102,25.644 -47.644,26.17 H 344.44 c 0,0 47.179,2.847 54.905,-26.17 7.727,-29.017 -12.859,-99.881 -12.859,-152.15 0.001,-60.821 27.156,-85.786 27.156,-85.786 z"
   id="path50" />
		</g>
		<g
   style="opacity:0.8"
   id="g62">
			<path
   style="opacity:0.8;fill:#2aa0cd;fill-opacity:1"
   d="M 372.64,212.33 H 252.1 c 3.41,-26.74 12.6,-42.3 17.67,-49.1 h 116.18 c -5.65,11.9 -11.03,28.11 -13.31,49.1 z"
   id="path51" />
			<path
   style="opacity:0.3;fill:#2aa0cd;fill-opacity:1"
   d="M 371.63,226.51 H 250.92 c 0.1,-2.43 0.24,-4.79 0.44,-7.07 H 372 c -0.17,2.3 -0.29,4.66 -0.37,7.07 z"
   id="path52" />
			<path
   style="opacity:0.3;fill:#2aa0cd;fill-opacity:1"
   d="M 288.767,240.68 H 250.88 c -0.07,-2.26 -0.11,-4.48 -0.11,-6.67 v -0.39 h 37.897 v 0.39 c 0,2.2 0.03,4.43 0.1,6.67 z"
   id="path53" />
			<path
   style="opacity:0.3;fill:#2aa0cd;fill-opacity:1"
   d="M 372.35,254.85 H 251.73 c -0.21,-2.38 -0.38,-4.74 -0.51,-7.06 h 120.67 c 0.12,2.34 0.27,4.69 0.46,7.06 z"
   id="path54" />
			<path
   style="opacity:0.3;fill:#2aa0cd;fill-opacity:1"
   d="M 373.68,269.03 H 253.16 c -0.28,-2.37 -0.54,-4.73 -0.78,-7.07 h 120.57 c 0.22,2.35 0.47,4.71 0.73,7.07 z"
   id="path55" />
			<path
   style="opacity:0.3;fill:#2aa0cd;fill-opacity:1"
   d="M 375.42,283.2 H 254.98 c -0.33,-2.36 -0.64,-4.72 -0.94,-7.06 h 120.48 c 0.28,2.35 0.58,4.7 0.9,7.06 z"
   id="path56" />
			<path
   style="opacity:0.3;fill:#2aa0cd;fill-opacity:1"
   d="M 377.41,297.37 H 257.03 c -0.35,-2.36 -0.7,-4.71 -1.04,-7.06 H 376.4 c 0.33,2.35 0.67,4.71 1.01,7.06 z"
   id="path57" />
			<path
   style="opacity:0.3;fill:#2aa0cd;fill-opacity:1"
   d="M 379.54,311.55 H 259.17 c -0.19,-1.29 -0.39,-2.6 -0.59,-3.91 -0.16,-1.05 -0.32,-2.1 -0.48,-3.16 h 120.37 c 0.36,2.36 0.71,4.72 1.07,7.07 z"
   id="path58" />
			<path
   style="opacity:0.3;fill:#2aa0cd;fill-opacity:1"
   d="m 261.27,325.72 c -0.33,-2.33 -0.67,-4.68 -1.03,-7.06 h 120.38 c 0.35,2.36 0.71,4.71 1.05,7.06 z"
   id="path59" />
			<path
   style="opacity:0.3;fill:#2aa0cd;fill-opacity:1"
   d="m 263.18,339.89 c -0.28,-2.31 -0.59,-4.67 -0.91,-7.06 h 100.397 c 0.34,2.38 0.66,4.74 0.96,7.06 z"
   id="path60" />
			<path
   style="opacity:0.3;fill:#2aa0cd;fill-opacity:1"
   d="M 264.66,354.07 C 264.47,351.76 264.25,349.4 264,347 h 120.52 c 0.27,2.42 0.52,4.78 0.73,7.07 z"
   id="path61" />
			<path
   style="opacity:0.3;fill:#2aa0cd;fill-opacity:1"
   d="m 265.35,368.24 c -0.01,-2.28 -0.09,-4.64 -0.22,-7.06 h 63.59 c 0.16,2.47 0.25,4.83 0.28,7.06 z"
   id="path62" />
		</g>
		<path
   style="fill:#2aa0cd;fill-opacity:1"
   d="m 356.014,404.679 c -7.651,1.39 -15.401,0.329 -23.092,-0.043 -3.689,-0.179 -7.397,-0.194 -11.065,0.296 -3.592,0.48 -7.176,1.416 -10.806,1.1 1.199,-0.646 2.32,-1.408 3.373,-2.29 0.233,-0.195 0.077,-0.542 -0.165,-0.627 -11.29,-3.961 -21.573,6.828 -32.815,4.301 3.182,-2.361 7.674,-2.408 10.395,-5.505 0.211,-0.241 0.073,-0.635 -0.265,-0.64 -10.073,-0.157 -19.587,3.748 -29.545,4.617 -0.477,0.042 -0.482,0.792 0,0.75 9.653,-0.843 18.899,-4.528 28.629,-4.609 -2.906,2.596 -7.346,2.692 -10.309,5.309 -0.215,0.19 -0.094,0.555 0.165,0.627 11.333,3.129 21.659,-7.687 32.853,-4.342 -1.174,0.915 -2.427,1.683 -3.786,2.31 -0.282,0.13 -0.221,0.633 0.09,0.685 3.689,0.618 7.297,-0.17 10.935,-0.749 4.081,-0.65 8.197,-0.684 12.317,-0.484 7.766,0.376 15.566,1.42 23.292,0.017 0.473,-0.085 0.272,-0.808 -0.201,-0.723 z"
   id="path63" />
	</g>
</g><g
   id="Character"
   transform="matrix(0.83474576,0,0,0.83474576,-29.711864,49.586678)">
	<g
   id="g101">
		<g
   id="g100">
			<path
   style="fill:#ffb573;fill-opacity:1.0"
   d="m 151.876,185.128 c 0.634,0.808 1.44,1.761 2.184,2.64 0.764,0.893 1.549,1.773 2.352,2.634 1.611,1.717 3.239,3.412 4.96,4.978 3.435,3.113 7.121,5.924 10.981,7.698 0.481,0.217 0.964,0.424 1.447,0.597 0.252,0.103 0.471,0.174 0.678,0.238 0.21,0.073 0.426,0.142 0.657,0.191 0.902,0.226 1.891,0.392 2.933,0.456 2.089,0.115 4.342,-0.025 6.617,-0.377 2.28,-0.334 4.589,-0.852 6.895,-1.464 2.294,-0.599 4.646,-1.344 6.842,-2.114 l 2.023,3.965 c -4.481,2.756 -9.132,4.898 -14.297,6.357 -2.575,0.712 -5.279,1.225 -8.16,1.317 -1.441,0.042 -2.938,-0.026 -4.469,-0.299 -0.381,-0.057 -0.767,-0.142 -1.154,-0.24 -0.395,-0.09 -0.773,-0.189 -1.105,-0.299 -0.701,-0.204 -1.378,-0.442 -2.047,-0.693 -5.332,-2.067 -9.768,-5.234 -13.76,-8.684 -1.986,-1.742 -3.9,-3.538 -5.671,-5.461 -0.89,-0.958 -1.758,-1.933 -2.606,-2.929 -0.867,-1.012 -1.641,-1.977 -2.508,-3.149 z"
   id="path64" />
			<path
   style="fill:#2aa0cd;fill-opacity:1.0"
   d="m 141.713,182.302 c -0.22,5.601 1.952,15.694 1.952,15.694 l 13.862,-1.679 c 0,0 0.508,-14.774 -2.179,-18.345 -4.513,-6 -13.427,-0.96 -13.635,4.33 z"
   id="path65" />
			<path
   style="fill:#ffb573;fill-opacity:1.0"
   d="m 196.618,202.055 6.496,-5.941 0.827,6.397 c 0,0 -2.691,3.604 -5.741,2.09 z"
   id="path66" />
			<polygon
   style="fill:#ffb573;fill-opacity:1.0"
   points="209.122,200.065 203.941,202.511 203.114,196.114 206.372,196.46 "
   id="polygon66" />
			<g
   id="g72">
				<path
   style="fill:#263238;fill-opacity:1.0"
   d="m 204.734,180.268 c 0.688,-0.042 1.066,-0.003 1.56,0.005 0.251,0.003 0.471,0.014 0.625,0.043 l 0.522,0.07 c 0.607,0.116 0.993,0.289 1.238,0.499 0.239,0.211 0.252,0.481 0.342,0.73 l 0.232,0.759 0.927,3.036 1.855,6.072 3.71,12.145 c 2.451,8.103 4.999,16.18 7.363,24.305 4.852,16.218 9.446,32.502 13.953,48.81 4.504,16.308 8.749,32.683 13.104,49.029 4.421,16.329 8.263,32.809 9.651,49.924 0.221,2.732 -1.813,5.125 -4.545,5.347 -2.14,0.174 -4.076,-1.048 -4.919,-2.895 -7.098,-15.636 -11.741,-31.908 -15.805,-48.33 -4.129,-16.405 -8.37,-32.781 -12.351,-49.224 -3.978,-16.444 -7.869,-32.911 -11.502,-49.445 -1.879,-8.251 -3.573,-16.549 -5.365,-24.822 l -2.654,-12.419 -1.327,-6.209 -0.663,-3.105 -0.166,-0.776 c -0.042,-0.262 -0.161,-0.504 -0.055,-0.805 0.111,-0.302 0.365,-0.641 0.84,-1.037 l 0.423,-0.314 c 0.121,-0.1 0.308,-0.216 0.526,-0.341 0.428,-0.247 0.74,-0.465 1.361,-0.762 0.359,-0.171 0.745,-0.266 1.12,-0.29 z"
   id="path67" />
				<g
   id="g69"
   style="fill:#ff5555;fill-opacity:1.0">
					<path
   style="fill:#ff5555;fill-opacity:1.0"
   d="m 258.863,378.165 c -0.168,-0.56 -0.737,-0.901 -1.303,-0.754 l -2.2,0.57 -2.201,0.57 c -0.566,0.147 -0.898,0.72 -0.773,1.292 1.374,6.292 0.031,10.808 1.466,16.345 1.511,5.833 8.08,8.818 8.08,8.818 l -0.214,-2.485 1.019,2.276 c 0,0 4.293,-5.799 2.782,-11.632 -1.435,-5.536 -4.802,-8.832 -6.656,-15 z"
   id="path68" />
					<path
   style="opacity:0.85447761;fill:#2aa0cd;fill-opacity:1"
   d="m 258.863,378.165 c -0.168,-0.56 -0.737,-0.901 -1.303,-0.754 l -2.2,0.57 -2.201,0.57 c -0.566,0.147 -0.898,0.72 -0.773,1.292 1.374,6.292 0.031,10.808 1.466,16.345 1.511,5.833 8.08,8.818 8.08,8.818 l -0.214,-2.485 1.019,2.276 c 0,0 4.293,-5.799 2.782,-11.632 -1.435,-5.536 -4.802,-8.832 -6.656,-15 z"
   id="path69" />
				</g>
				<path
   style="fill:#263238;fill-opacity:1.0"
   d="m 260.574,392.622 c 0.191,0.736 -0.251,1.487 -0.987,1.678 -0.736,0.191 -1.487,-0.251 -1.678,-0.987 -0.191,-0.736 0.251,-1.487 0.987,-1.678 0.736,-0.191 1.488,0.251 1.678,0.987 z"
   id="path70" />
				<path
   style="fill:#263238;fill-opacity:1.0"
   d="m 261.795,402.824 c -0.167,0.043 -0.337,-0.057 -0.38,-0.224 l -2.476,-9.555 c -0.043,-0.167 0.057,-0.337 0.224,-0.38 0.167,-0.043 0.337,0.057 0.38,0.224 l 2.475,9.555 c 0.044,0.167 -0.056,0.337 -0.223,0.38 z"
   id="path71" />
				<path
   style="fill:#2aa0cd;fill-opacity:1"
   d="m 253.699,343.816 -13.477,3.492 c -0.775,0.201 -1.572,-0.269 -1.773,-1.043 v 0 c -0.201,-0.775 0.269,-1.572 1.043,-1.773 L 252.969,341 c 0.774,-0.201 1.572,0.269 1.773,1.043 v 0 c 0.201,0.774 -0.269,1.572 -1.043,1.773 z"
   id="path72" />
			</g>
			<path
   style="fill:#263238;fill-opacity:1.0"
   d="m 185.275,160.801 c -0.241,0.601 -0.118,1.227 0.274,1.397 0.393,0.17 0.907,-0.179 1.148,-0.78 0.241,-0.601 0.118,-1.227 -0.274,-1.397 -0.393,-0.171 -0.907,0.179 -1.148,0.78 z"
   id="path73" />
			<path
   style="fill:#263238;fill-opacity:1.0"
   d="m 186.236,159.979 1.61,0.209 c 0,0 -1.193,0.807 -1.61,-0.209 z"
   id="path74" />
			<path
   style="fill:#ed893e;fill-opacity:1.0"
   d="m 185.546,161.605 c 0,0 -0.019,3.03 0.602,4.766 -1.09,0.397 -2.303,-0.526 -2.303,-0.526 z"
   id="path75" />
			<path
   style="fill:#263238;fill-opacity:1.0"
   d="m 187.691,157.141 c -0.06,-0.013 -0.117,-0.041 -0.167,-0.083 -1.3,-1.118 -2.652,-0.791 -2.709,-0.777 -0.205,0.052 -0.413,-0.07 -0.465,-0.274 -0.053,-0.204 0.068,-0.411 0.271,-0.466 0.072,-0.019 1.787,-0.452 3.402,0.937 0.16,0.138 0.178,0.379 0.04,0.539 -0.094,0.111 -0.238,0.154 -0.372,0.124 z"
   id="path76" />
			<path
   style="fill:#ffb573;fill-opacity:1.0"
   d="m 164.071,160.49 c 0.433,4.865 -1.196,12.84 -4.872,15.554 0,0 2.769,5.12 11.64,6.311 9.754,1.309 5.172,-4.181 5.172,-4.181 -5.19,-1.977 -4.636,-5.879 -3.318,-9.436 z"
   id="path77" />
			<path
   style="fill:#ffb573;fill-opacity:1.0"
   d="m 190.645,186.475 c 0.763,4.547 1.712,9.256 2.705,13.842 0.526,2.294 1.062,4.588 1.682,6.843 0.574,2.273 1.237,4.502 1.932,6.712 0.374,1.085 0.713,2.195 1.113,3.261 l 0.6,1.599 0.147,0.393 0.035,0.114 c 0.026,0.067 0.043,0.132 0.074,0.182 0.088,0.194 0.308,0.48 0.94,0.731 0.611,0.244 1.491,0.404 2.454,0.468 1.946,0.111 4.176,-0.136 6.399,-0.523 2.216,-0.393 4.543,-0.934 6.713,-1.539 l 1.832,4.056 c -1.149,0.689 -2.241,1.244 -3.399,1.798 -1.145,0.555 -2.32,1.056 -3.531,1.504 -2.427,0.889 -4.964,1.632 -7.853,1.873 -1.448,0.115 -3.004,0.096 -4.719,-0.321 -1.679,-0.399 -3.679,-1.345 -5.087,-3.066 -0.355,-0.415 -0.656,-0.867 -0.924,-1.326 -0.134,-0.23 -0.246,-0.463 -0.364,-0.698 l -0.198,-0.444 -0.777,-1.751 c -0.514,-1.169 -0.961,-2.344 -1.429,-3.521 -0.86,-2.362 -1.679,-4.731 -2.394,-7.113 -0.719,-2.385 -1.341,-4.781 -1.952,-7.18 -1.197,-4.82 -2.161,-9.585 -2.888,-14.581 z"
   id="path78" />
			<path
   style="fill:#ffb573;fill-opacity:1.0"
   d="m 214.445,218.837 3.86,-3.062 1.734,5.947 c 0,0 -5.281,3.819 -6.693,-0.673 z"
   id="path79" />
			<polygon
   style="fill:#ffb573;fill-opacity:1.0"
   points="223.167,221.167 220.039,221.722 218.305,215.775 221.786,216.832 "
   id="polygon79" />
			<polygon
   style="fill:#ffb573;fill-opacity:1.0"
   points="157.735,408.006 160.132,389.478 152.063,388.883 149.667,407.411 "
   id="polygon80" />
			<polygon
   style="fill:#ffb573;fill-opacity:1.0"
   points="104.982,388.121 116.607,373.6 109.618,369.349 97.992,383.871 "
   id="polygon81" />
			<path
   style="fill:#407bff;fill-opacity:1.0"
   d="m 109.857,390.258 c -0.093,0.026 -0.191,0.038 -0.292,0.036 -1.028,-0.022 -2.19,-1.568 -2.791,-2.487 -0.041,-0.065 -0.042,-0.148 0.002,-0.212 0.044,-0.064 0.121,-0.095 0.196,-0.08 0.328,0.066 3.215,0.671 3.595,1.637 0.085,0.215 0.052,0.436 -0.094,0.641 -0.176,0.243 -0.383,0.399 -0.616,0.465 z m -2.494,-2.265 c 0.844,1.198 1.655,1.907 2.21,1.919 0.227,0.005 0.421,-0.107 0.589,-0.342 0.09,-0.127 0.074,-0.215 0.05,-0.278 -0.201,-0.509 -1.701,-1.023 -2.849,-1.299 z"
   id="path81" />
			<path
   style="fill:#407bff;fill-opacity:1.0"
   d="m 109.429,387.76 c -0.869,0.244 -1.996,0.275 -2.545,0.127 -0.065,-0.018 -0.117,-0.068 -0.134,-0.134 -0.018,-0.065 -0.001,-0.135 0.046,-0.184 0.066,-0.069 1.655,-1.698 2.819,-1.649 0.32,0.013 0.583,0.143 0.783,0.387 0.312,0.38 0.196,0.688 0.099,0.838 -0.178,0.275 -0.582,0.478 -1.068,0.615 z m -2.096,-0.18 c 0.975,0.106 2.54,-0.175 2.842,-0.643 0.05,-0.078 0.087,-0.192 -0.074,-0.388 -0.129,-0.158 -0.293,-0.239 -0.501,-0.247 -0.698,-0.028 -1.71,0.765 -2.267,1.278 z"
   id="path82" />
			<path
   style="fill:#263238;fill-opacity:1.0"
   d="m 107.079,386.563 -6.631,-6.384 c -0.241,-0.232 -0.594,-0.258 -0.848,-0.062 l -5.658,4.367 c -0.587,0.453 -0.6,1.404 -0.035,1.93 2.349,2.187 3.59,3.128 6.506,5.936 1.794,1.727 4.241,4.432 6.718,6.817 2.423,2.333 4.898,0.134 4.074,-1.075 -3.696,-5.419 -3.144,-7.455 -3.48,-10.226 -0.059,-0.5 -0.293,-0.963 -0.646,-1.303 z"
   id="path83" />
			<path
   style="fill:#407bff;fill-opacity:1.0"
   d="m 161.239,408.268 c -0.889,0 -1.852,-0.152 -2.535,-0.289 -0.08,-0.016 -0.14,-0.081 -0.151,-0.161 -0.012,-0.081 0.03,-0.159 0.101,-0.197 0.37,-0.19 3.643,-1.838 4.61,-1.287 0.188,0.106 0.295,0.282 0.309,0.509 0.025,0.381 -0.1,0.694 -0.37,0.929 -0.422,0.372 -1.163,0.496 -1.964,0.496 z m -1.895,-0.56 c 1.78,0.296 3.107,0.218 3.609,-0.222 0.178,-0.155 0.255,-0.357 0.239,-0.617 -0.006,-0.099 -0.041,-0.159 -0.115,-0.201 -0.534,-0.299 -2.391,0.404 -3.733,1.04 z"
   id="path84" />
			<path
   style="fill:#407bff;fill-opacity:1.0"
   d="m 158.742,407.983 c -0.04,0 -0.08,-0.012 -0.112,-0.037 -0.055,-0.04 -0.085,-0.107 -0.078,-0.175 0.015,-0.144 0.388,-3.444 2.194,-3.444 0.051,0 0.104,0.003 0.157,0.008 0.523,0.053 0.673,0.318 0.707,0.53 0.146,0.912 -1.807,2.661 -2.791,3.1 -0.024,0.013 -0.051,0.018 -0.077,0.018 z m 2.011,-3.272 c -1.164,0 -1.623,1.917 -1.766,2.737 1.006,-0.6 2.334,-1.974 2.246,-2.52 -0.007,-0.044 -0.029,-0.176 -0.368,-0.211 -0.039,-0.004 -0.075,-0.006 -0.112,-0.006 z"
   id="path85" />
			<path
   style="fill:#263238;fill-opacity:1.0"
   d="m 158.239,406.857 h -9.07 c -0.33,0 -0.604,0.229 -0.658,0.551 l -1.218,7.176 c -0.126,0.744 0.496,1.449 1.257,1.436 3.163,-0.054 4.692,-0.24 8.68,-0.24 2.454,0 7.522,0.255 10.911,0.255 3.314,0 3.655,-3.35 2.252,-3.654 -6.292,-1.361 -8.733,-3.237 -10.818,-5.027 -0.376,-0.323 -0.853,-0.497 -1.336,-0.497 z"
   id="path86" />
			<g
   id="g87">
				<polygon
   style="opacity:0.2"
   points="158.799,399.78 150.823,398.444 152.057,388.888 160.129,389.482 "
   id="polygon86" />
				<polygon
   style="opacity:0.2"
   points="116.606,373.605 111.794,379.61 104.651,375.544 109.613,369.352 "
   id="polygon87" />
			</g>
			<path
   style="fill:#2aa0cd;fill-opacity:1.0"
   d="m 145.598,224.659 c 6.316,0.845 19.715,2.646 32.674,4.39 12.659,-45.819 8.927,-47.076 8.925,-47.077 -0.997,-0.597 -2.951,-1.199 -4.448,-1.741 -1.541,-0.557 -3.098,-1.068 -4.669,-1.533 -3.142,-0.93 -6.339,-1.675 -9.568,-2.23 -6.272,-1.083 -12.676,-1.442 -19.03,-1.067 -1.24,0.073 -2.508,0.777 -3.206,1.824 -0.133,0.199 -0.249,0.41 -0.35,0.627 -0.353,0.757 -0.488,1.606 -0.393,2.436 2.787,24.108 1.897,32.036 0.065,44.371 z"
   id="path87" />
			<path
   style="opacity:0.2"
   d="m 181.454,196.028 c -0.896,6.397 0.745,11.579 1.767,14.044 2.173,-8.943 3.348,-15.042 3.934,-19.201 -2.493,-0.18 -5.086,0.776 -5.701,5.157 z"
   id="path88" />
			<path
   style="fill:#2aa0cd;fill-opacity:1.0"
   d="m 186.914,181.838 c 5.594,3.206 9.483,10.834 10.656,15.266 l -11.916,10.919 c 0,0 -6.182,-14.371 -5.684,-18.836 0.503,-4.52 4.828,-8.561 6.944,-7.349 z"
   id="path89" />
			<path
   style="fill:#ffb573;fill-opacity:1.0"
   d="m 165.838,150.436 c -2.509,7.58 -3.732,10.73 -1.526,16.135 3.318,8.131 13.152,9.845 17.869,3.238 4.246,-5.947 7.635,-17.344 1.593,-23.414 -5.954,-5.979 -15.427,-3.539 -17.936,4.041 z"
   id="path90" />
			<path
   style="fill:#ffb573;fill-opacity:1.0"
   d="m 178.27,157.161 c -0.566,1.337 -0.569,3.004 -0.239,4.349 0.496,2.024 2.006,2.166 2.926,0.875 0.827,-1.162 1.567,-3.614 0.56,-5.295 -0.992,-1.656 -2.6,-1.458 -3.247,0.071 z"
   id="path91" />
			<path
   style="fill:#263238;fill-opacity:1.0"
   d="m 168.556,141 c -5.393,-3 -15.111,5.778 -17.556,20.109 -1.751,10.264 20.161,15.224 33.997,15.057 -0.914,-2.417 -6.664,-9.697 -2.994,-16.703 2.666,-5.091 5.708,-3.917 5.906,-9.839 0.248,-7.457 -9.631,-12.457 -19.353,-8.624 z"
   id="path92" />
			<path
   style="fill:#263238;fill-opacity:1.0"
   d="m 180.854,144.222 c 6.275,-0.611 12.591,5.556 7.902,11.707 0,0 -3.422,-3.04 -8.238,-1.985 -2.864,0.628 0.336,-9.722 0.336,-9.722 z"
   id="path93" />
			<path
   style="fill:#263238;fill-opacity:1.0"
   d="m 169.647,227.888 c 0,0 -12.687,53.625 -18.616,84.43 -6.256,32.501 -36.27,66.359 -36.27,66.359 l -10.194,-5.684 c 0,0 18.885,-30.907 25.012,-61.252 12.437,-61.601 4.017,-74.009 16.022,-87.08 z"
   id="path94" />
			<polygon
   style="fill:#2aa0cd;fill-opacity:1"
   points="103.043,372.538 104.902,368.778 119.178,375.346 115.77,379.634 "
   id="polygon94" />
			<path
   style="opacity:0.2"
   d="m 162.905,239.544 c -9.865,8.563 -8.798,38.954 -7.766,52.651 4.14,-19.472 9.115,-41.157 12.032,-53.706 -1.039,-0.777 -2.453,-0.519 -4.266,1.055 z"
   id="path95" />
			<path
   style="fill:#263238;fill-opacity:1.0"
   d="m 177.787,229.075 c 0,0 5.708,63.661 2.594,87.945 -3.239,25.259 -19.721,80.214 -19.721,80.214 l -11.638,-1.503 c 0,0 9.454,-54.457 11.135,-79.465 1.832,-27.263 -6.298,-90.403 -6.298,-90.403 z"
   id="path96" />
			<polygon
   style="fill:#2aa0cd;fill-opacity:1"
   points="146.548,395.756 146.803,390.857 164.798,392.602 163.135,397.898 "
   id="polygon96" />
			<g
   id="g98"
   style="fill:#1d6e8d;fill-opacity:1">
				<path
   style="fill:#1d6e8d;fill-opacity:1"
   d="m 145.313,222.692 -1.782,2.706 c -0.138,0.21 0.106,0.476 0.484,0.526 l 34.268,4.599 c 0.295,0.04 0.554,-0.071 0.592,-0.252 l 0.603,-2.864 c 0.042,-0.198 -0.195,-0.403 -0.518,-0.446 l -33.089,-4.441 c -0.243,-0.033 -0.469,0.037 -0.558,0.172 z"
   id="path97" />
				<path
   style="opacity:0.5;fill:#1d6e8d;fill-opacity:1"
   d="m 145.313,222.692 -1.782,2.706 c -0.138,0.21 0.106,0.476 0.484,0.526 l 34.268,4.599 c 0.295,0.04 0.554,-0.071 0.592,-0.252 l 0.603,-2.864 c 0.042,-0.198 -0.195,-0.403 -0.518,-0.446 l -33.089,-4.441 c -0.243,-0.033 -0.469,0.037 -0.558,0.172 z"
   id="path98" />
			</g>
			<path
   style="fill:#263238;fill-opacity:1.0"
   d="m 149.367,226.961 -0.886,-0.119 c -0.176,-0.024 -0.301,-0.132 -0.277,-0.241 l 0.816,-3.716 c 0.024,-0.109 0.188,-0.178 0.364,-0.155 l 0.886,0.119 c 0.176,0.024 0.301,0.132 0.277,0.241 l -0.816,3.716 c -0.024,0.109 -0.188,0.179 -0.364,0.155 z"
   id="path99" />
			<path
   style="fill:#263238;fill-opacity:1.0"
   d="m 171.749,230.017 -0.886,-0.119 c -0.176,-0.024 -0.301,-0.132 -0.278,-0.241 l 0.816,-3.716 c 0.024,-0.109 0.188,-0.178 0.364,-0.155 l 0.886,0.119 c 0.176,0.024 0.301,0.132 0.277,0.241 l -0.816,3.716 c -0.023,0.109 -0.187,0.178 -0.363,0.155 z"
   id="path100" />
		</g>
	</g>
</g></svg>
