<?xml version="1.0" encoding="UTF-8" standalone="no"?>
<!-- Generator: Adobe Illustrator 19.0.0, SVG Export Plug-In . SVG Version: 6.00 Build 0)  -->

<svg
   version="1.1"
   id="Capa_1"
   x="0px"
   y="0px"
   viewBox="0 0 397.324 397.324"
   style="enable-background:new 0 0 397.324 397.324;"
   xml:space="preserve"
   sodipodi:docname="light.svg"
   inkscape:version="1.3.2 (091e20e, 2023-11-25)"
   xmlns:inkscape="http://www.inkscape.org/namespaces/inkscape"
   xmlns:sodipodi="http://sodipodi.sourceforge.net/DTD/sodipodi-0.dtd"
   xmlns="http://www.w3.org/2000/svg"
   xmlns:svg="http://www.w3.org/2000/svg"><defs
   id="defs2" /><sodipodi:namedview
   id="namedview2"
   pagecolor="#ffffff"
   bordercolor="#000000"
   borderopacity="0.25"
   inkscape:showpageshadow="2"
   inkscape:pageopacity="0.0"
   inkscape:pagecheckerboard="0"
   inkscape:deskcolor="#d1d1d1"
   inkscape:zoom="0.59397368"
   inkscape:cx="228.12459"
   inkscape:cy="195.29485"
   inkscape:window-width="1280"
   inkscape:window-height="449"
   inkscape:window-x="0"
   inkscape:window-y="25"
   inkscape:window-maximized="0"
   inkscape:current-layer="Capa_1" />
<path
   style="fill:#f9e0d2"
   d="m 121.486,127.232 c 37.264,-37.264 97.904,-37.264 135.168,0 l 37.216,37.216 c 6.016,6.016 8.304,14.64 6.064,23.04 l -20.752,78.448 c -0.416,2.768 -2.048,7.856 -6.448,12.256 -5.04,5.04 -12.08,7.488 -19.328,6.736 l -22.336,-2.272 65.648,65.648 c 9.36,9.36 9.36,24.576 0,33.936 -9.36,9.36 -24.576,9.36 -33.936,0 L 149.678,269.136 c -2.192,-2.192 -5.392,-2.784 -8.208,-1.776 l 0.016,28.896 c -0.016,23.376 -15.328,44.976 -37.312,52.752 l -10.672,3.808 0.112,-160.32 c 0.576,-24.688 10.48,-47.872 27.872,-65.264 z"
   id="path1" />
<g
   id="g2"
   transform="rotate(180,198.662,244.314)">
	<path
   style="fill:#010101"
   d="m 297.498,129.968 c -11.952,2.72 -22.64,8.752 -31.008,17.104 -11.568,11.568 -18.72,27.552 -18.72,45.2 l 0.016,16.016 L 140.138,100.64 c -12.448,-12.448 -32.816,-12.448 -45.248,0 -12.448,12.448 -12.448,32.816 0,45.248 l 49.776,49.776 c -9.2,-0.944 -18.72,1.984 -25.776,9.024 -4.896,4.896 -7.808,11.024 -8.848,17.376 l -20.528,76.928 c -2.816,10.64 -0.096,22.432 8.224,30.768 l 37.216,37.216 c 40.464,40.464 106.032,40.464 146.496,0 19.6,-19.6 29.616,-45.088 30.208,-70.752 l 0.112,0.096 v -2.512 c 0,-0.048 0,-0.096 0,-0.112 l -0.016,-152.384 c 0.016,-6.432 -5.2,-11.648 -11.648,-11.648 -0.912,0 -1.792,0.08 -2.608,0.304 z m -1.712,165.872 c -0.544,22.656 -9.76,43.904 -25.68,59.808 -34.16,34.16 -89.712,34.16 -123.856,0 l -37.216,-37.216 c -3.984,-3.984 -5.472,-9.712 -4,-15.328 l 20.768,-78.432 c 0.384,-2.336 1.456,-5.744 4.368,-8.672 4.528,-4.528 9.984,-4.72 12.848,-4.432 l 22.352,2.256 c 3.36,0.336 6.576,-1.472 8.032,-4.528 1.456,-3.056 0.816,-6.688 -1.568,-9.088 L 106.186,134.56 c -6.24,-6.24 -6.24,-16.4 0,-22.624 6.24,-6.24 16.4,-6.24 22.624,0 L 241.914,225.04 c 4.816,4.816 11.872,5.824 17.728,3.2 2.512,-1.136 4.128,-3.632 4.128,-6.384 v -29.568 c 0,-12.8 4.992,-24.832 14.032,-33.888 5.104,-5.104 11.36,-8.96 18.08,-11.344 z"
   id="path2" />
</g>
</svg>
